External Loads File
version=1
nRows=62
nColumns=13
Range=5.000000e-03-10 seconds
endheader
time 	forceRightX 	forceRightY 	forceRightZ 	pointRightX 	pointRightY 	pointRightZ 	forceLeftX 	forceLeftY 	forceLeftZ 	pointLeftX 	pointLeftY 	pointLeftZ 		
7.505000 -38.766596 -80.903957 -0.000000 0.158750 0.411553 -0.114626 -11.841682 921.848420 -0.000000 0.413347 0.241343 -0.366264
7.510000 -38.567966 -77.516435 -0.000000 0.164350 0.420919 -0.114882 6.591601 958.276666 -0.000000 0.408519 0.231589 -0.366064
7.515000 -39.055473 -74.623223 -0.000000 0.170440 0.430045 -0.115235 26.232785 992.966744 -0.000000 0.403116 0.222495 -0.365960
7.520000 -40.279101 -72.063572 -0.000000 0.176991 0.438852 -0.115494 47.517853 1025.102721 -0.000000 0.397242 0.213712 -0.365837
7.525000 -42.102715 -69.730159 -0.000000 0.183918 0.447377 -0.115880 69.055276 1054.081901 -0.000000 0.390904 0.205756 -0.365609
7.530000 -44.506393 -67.437378 -0.000000 0.191282 0.455227 -0.116284 91.332273 1079.352572 -0.000000 0.384230 0.197901 -0.365446
7.535000 -47.457269 -64.987960 -0.000000 0.199164 0.462840 -0.116611 114.936212 1100.361217 -0.000000 0.377099 0.190485 -0.365285
7.540000 -50.749051 -62.303224 -0.000000 0.207305 0.469828 -0.117101 137.515488 1116.919516 -0.000000 0.369703 0.183645 -0.365122
7.545000 -54.400619 -59.149470 -0.000000 0.215845 0.476364 -0.117442 160.224547 1128.634668 -0.000000 0.361916 0.177273 -0.365115
7.550000 -58.281195 -55.421272 -0.000000 0.224422 0.482380 -0.118196 181.380575 1135.662203 -0.000000 0.353803 0.171485 -0.365061
7.555000 -62.401645 -50.887996 -0.000000 0.233478 0.487943 -0.118613 202.222522 1137.954288 -0.000000 0.345393 0.166233 -0.365039
7.560000 -66.682655 -45.406594 -0.000000 0.243216 0.492632 -0.118623 222.670474 1135.782634 -0.000000 0.336729 0.161541 -0.365078
7.565000 -70.881917 -39.138492 -0.000000 0.252051 0.496943 -0.119260 238.138153 1130.450912 -0.000000 0.327823 0.157450 -0.365004
7.570000 -75.121756 -31.739954 -0.000000 0.261640 0.500572 -0.119668 253.181909 1121.461966 -0.000000 0.318786 0.153985 -0.365025
7.575000 -79.274301 -23.298470 -0.000000 0.271375 0.503450 -0.120034 266.107778 1109.463937 -0.000000 0.309594 0.151107 -0.365082
7.580000 -83.295603 -13.767122 -0.000000 0.281270 0.505808 -0.120431 278.330778 1094.250328 -0.000000 0.299911 0.148873 -0.363836
7.585000 -87.072081 -3.515144 -0.000000 0.290987 0.507451 -0.120618 286.587305 1076.538162 -0.000000 0.290472 0.147324 -0.363911
7.590000 -90.570843 7.427346 -0.000000 0.300746 0.508380 -0.120855 293.142702 1055.357945 -0.000000 0.280905 0.146379 -0.363963
7.595000 -93.689857 18.767085 -0.000000 0.310543 0.508678 -0.121154 297.759033 1030.053879 -0.000000 0.271379 0.146154 -0.364075
7.600000 -96.301403 30.197498 -0.000000 0.320323 0.508333 -0.121451 300.639444 999.647429 -0.000000 0.261846 0.146649 -0.364197
7.605000 -98.371704 41.223337 -0.000000 0.329491 0.507461 -0.121521 299.954721 963.750176 -0.000000 0.252421 0.147771 -0.364316
7.610000 -99.794306 51.799175 -0.000000 0.338647 0.505853 -0.121613 297.735068 920.958088 -0.000000 0.243188 0.150007 -0.364604
7.615000 -100.603927 61.720506 -0.000000 0.347543 0.503690 -0.121655 293.300242 870.985513 -0.000000 0.234011 0.152534 -0.364835
7.620000 -100.932559 70.913598 -0.000000 0.356019 0.500844 -0.121796 286.202882 813.790174 -0.000000 0.225059 0.155546 -0.364565
7.625000 -100.863914 79.635858 -0.000000 0.364419 0.497800 -0.121722 277.220770 749.021110 -0.000000 0.216394 0.159884 -0.364440
7.630000 -100.636996 88.123140 -0.000000 0.372193 0.493424 -0.121761 265.143827 677.203333 -0.000000 0.208198 0.165010 -0.364340
7.635000 -100.473247 96.852793 -0.000000 0.379638 0.488581 -0.121828 249.451387 599.242677 -0.000000 0.200263 0.170346 -0.364189
7.640000 -100.388227 106.752567 -0.000000 0.386748 0.483129 -0.121641 231.429669 516.197317 -0.000000 0.192692 0.177757 -0.363729
7.645000 -101.140834 118.265425 -0.000000 0.393425 0.476864 -0.121381 208.859411 431.506304 -0.000000 0.185660 0.184375 -0.363225
7.650000 -102.505310 132.837967 -0.000000 0.399796 0.469856 -0.120865 184.207252 347.071927 -0.000000 0.179358 0.192827 -0.362607
7.655000 -104.955656 151.163420 -0.000000 0.405585 0.462242 -0.120274 156.952863 266.371256 -0.000000 0.173370 0.200976 -0.362019
7.660000 -108.296640 174.186018 -0.000000 0.410884 0.453888 -0.119618 128.707712 191.620401 -0.000000 0.167919 0.209452 -0.361515
7.665000 -112.412755 202.369452 -0.000000 0.415509 0.444795 -0.119020 100.640895 124.683967 -0.000000 0.162914 0.218074 -0.361114
7.670000 -116.997119 235.834012 -0.000000 0.419866 0.435465 -0.118594 73.951156 66.560514 -0.000000 0.158280 0.226944 -0.360821
7.675000 -121.513082 274.346223 -0.000000 0.423758 0.425575 -0.118187 49.530807 17.493536 -0.000000 0.154052 0.236194 -0.360911
7.680000 -125.901189 317.070974 -0.000000 0.427131 0.415505 -0.117954 27.881433 -22.740297 -0.000000 0.150255 0.245605 -0.360603
7.685000 -129.657765 363.128545 -0.000000 0.430118 0.405294 -0.118334 9.312472 -54.866146 -0.000000 0.147016 0.255316 -0.361012
7.690000 -132.427660 411.460673 -0.000000 0.432542 0.394936 -0.118238 -6.139604 -79.739992 -0.000000 0.144218 0.265222 -0.361110
7.695000 -133.612681 461.119397 -0.000000 0.434647 0.384330 -0.118493 -18.657901 -98.208223 -0.000000 0.141986 0.275278 -0.361008
7.700000 -133.222051 511.091415 -0.000000 0.436027 0.373483 -0.118645 -28.382805 -111.038584 -0.000000 0.140225 0.285308 -0.361048
7.705000 -130.874056 560.662560 -0.000000 0.437206 0.362662 -0.118774 -35.544842 -118.881641 -0.000000 0.139098 0.295522 -0.361374
7.710000 -126.127659 609.329938 -0.000000 0.437320 0.351501 -0.118643 -40.345775 -122.319494 -0.000000 0.138452 0.305802 -0.361408
7.715000 -118.849337 656.695712 -0.000000 0.437368 0.340337 -0.118592 -42.849902 -121.979270 -0.000000 0.138424 0.316219 -0.361707
7.720000 -109.403455 702.349039 -0.000000 0.437171 0.329141 -0.118122 -43.010642 -118.595115 -0.000000 0.138909 0.326534 -0.361877
7.725000 -97.789188 745.903611 -0.000000 0.436031 0.318181 -0.118742 -40.934831 -112.957899 -0.000000 0.139996 0.336930 -0.362148
7.730000 -82.126140 787.030356 -0.000000 0.434510 0.307023 -0.118710 -37.123552 -105.833886 -0.000000 0.141644 0.347586 -0.362388
7.735000 -64.426379 824.748076 -0.000000 0.432509 0.295944 -0.118561 -31.636264 -98.200805 -0.000000 0.143810 0.357947 -0.362581
7.740000 -44.270189 858.323224 -0.000000 0.429971 0.285203 -0.118540 -25.011115 -90.798372 -0.000000 0.146502 0.368445 -0.362789
7.745000 -21.688907 886.957851 -0.000000 0.427013 0.274610 -0.118596 -17.771422 -84.212656 -0.000000 0.149750 0.378973 -0.362963
7.750000 1.896059 909.905530 -0.000000 0.423611 0.264386 -0.118473 -10.322739 -78.821412 -0.000000 0.153605 0.389331 -0.362815
7.755000 25.947696 926.627055 -0.000000 0.419758 0.254426 -0.118268 -3.123830 -74.740169 -0.000000 0.157796 0.399491 -0.363060
7.760000 49.840970 936.768171 -0.000000 0.415479 0.244890 -0.118147 3.454632 -71.916203 -0.000000 0.162406 0.409568 -0.362400
7.765000 73.809356 940.155791 -0.000000 0.410575 0.235661 -0.117824 9.062717 -70.176368 -0.000000 0.167699 0.419374 -0.362991
7.770000 96.216701 937.014530 -0.000000 0.405369 0.226814 -0.117713 13.593964 -69.214554 -0.000000 0.173330 0.429047 -0.362704
7.775000 115.858072 927.878510 -0.000000 0.399524 0.218446 -0.117184 17.028332 -68.595833 -0.000000 0.179387 0.437946 -0.362487
7.780000 131.467407 913.545837 -0.000000 0.393858 0.210635 -0.117154 19.469531 -67.783978 -0.000000 0.185833 0.446465 -0.362448
7.785000 146.033848 894.336312 -0.000000 0.387408 0.203075 -0.117292 20.780411 -66.275546 -0.000000 0.192660 0.454866 -0.362158
7.790000 157.035850 871.444673 -0.000000 0.380684 0.196039 -0.117245 21.255508 -63.425449 -0.000000 0.199824 0.462673 -0.361234
7.795000 165.552071 845.589782 -0.000000 0.373555 0.189594 -0.116779 20.928328 -58.675418 -0.000000 0.207464 0.469968 -0.361232
7.800000 172.691199 817.436129 -0.000000 0.366129 0.183624 -0.116678 19.856905 -51.534862 -0.000000 0.216047 0.476515 -0.362814
7.805000 175.977838 788.377858 -0.000000 0.358411 0.178169 -0.116575 18.339188 -41.564195 -0.000000 0.224190 0.482530 -0.362365
7.810000 178.356496 758.595315 -0.000000 0.350190 0.173206 -0.116737 16.325406 -28.663165 -0.000000 0.232875 0.487632 -0.362372
